# xmcd CD database file
#
# Track frame offsets:
#	187
#	46260
#	96275
#	124700
#	166792
#
# Disc length: 3184 seconds
#
# Revision: 0
# Processed by: cddbd v1.5.2PL0 Copyright (c) Steve Scherf et al.
# Submitted via: CDex 1.70beta2
#
DISCID=350c6e05
DTITLE=Shotaro Moriyasu - The Historic MOCAMBO SESSION '54 Disk1
DYEAR=1954
DGENRE=Jazz
TTITLE0=I Want to be Happy
TTITLE1=Out of Nowhere
TTITLE2=This Love of Mine
TTITLE3=On a Slow Boat to Chiina
TTITLE4=Strike Up The Band
EXTD=YEAR: 1954
EXTT0=
EXTT1=
EXTT2=
EXTT3=
EXTT4=
PLAYORDER=
